<svg xmlns="http://www.w3.org/2000/svg" xmlns:svg="http://www.w3.org/2000/svg" id="svg4136" width="64" height="64" version="1.1" viewBox="0 0 64 64"><defs id="defs4138"><clipPath id="clipPath3470" clipPathUnits="userSpaceOnUse"><path id="path3472" d="m 0,0 937.559,0 0,841.89 L 0,841.89 0,0 Z"/></clipPath><clipPath id="clipPath3506" clipPathUnits="userSpaceOnUse"><path id="path3508" d="m 1119.766,4.513 39.711,0 0,26.33 -39.711,0 0,-26.33 z"/></clipPath><clipPath id="clipPath65104"><path id="path65106" d="m 439.7123,265.43179 -93.957,-6.569 -4.029,57.612 93.957,6.57 4.029,-57.613 z"/></clipPath><linearGradient id="SVGID_8_" x1="6.298" x2="35.307" y1="12.112" y2="12.112" gradientUnits="userSpaceOnUse"><stop id="stop61" offset="0" stop-color="#23A6DE"/><stop id="stop63" offset=".171" stop-color="#1A93D2"/><stop id="stop65" offset=".398" stop-color="#1380C4"/><stop id="stop67" offset=".617" stop-color="#0C74BB"/><stop id="stop69" offset=".823" stop-color="#086DB6"/><stop id="stop71" offset="1" stop-color="#066AB5"/></linearGradient><linearGradient id="SVGID_5_" x1=".5" x2="6.746" y1="18.885" y2="18.885" gradientUnits="userSpaceOnUse"><stop id="stop40" offset="0" stop-color="#95C13D"/><stop id="stop42" offset=".184" stop-color="#8BBD40"/><stop id="stop44" offset=".501" stop-color="#6EB245"/><stop id="stop46" offset=".91" stop-color="#2EA24B"/><stop id="stop48" offset="1" stop-color="#089E4C"/></linearGradient><linearGradient id="SVGID_2_" x1=".5" x2="34.677" y1="18.129" y2="18.129" gradientUnits="userSpaceOnUse"><stop id="stop13" offset="0" stop-color="#E31E30"/><stop id="stop15" offset=".107" stop-color="#E63E2D"/><stop id="stop17" offset=".255" stop-color="#E95628"/><stop id="stop19" offset=".39" stop-color="#EA6325"/><stop id="stop21" offset=".5" stop-color="#EB6824"/><stop id="stop23" offset=".583" stop-color="#ED7723"/><stop id="stop25" offset=".867" stop-color="#F5A61D"/><stop id="stop27" offset="1" stop-color="#F9BA16"/></linearGradient></defs><metadata id="metadata4141"/><g id="layer1" transform="translate(0,-988.36216)"><rect id="rect4267" width="64" height="64" x="0" y="988.362" fill="#fff" fill-opacity="1" stroke="#01ffff" stroke-dasharray="none" stroke-linecap="butt" stroke-linejoin="miter" stroke-miterlimit="0" stroke-opacity="1" stroke-width="0"/><path id="path18878" fill="#a91138" d="m 19.757508,992.73177 24.425805,0 c 2.432234,0 4.295217,1.07381 5.459581,3.0403 l 12.432843,21.54083 c 0.349306,0.621 0.815058,1.9018 0.80212,2.9497 0,1.2679 -0.426936,2.2511 -1.112618,3.4285 l -11.824785,20.5445 c -1.138487,1.9795 -2.522788,3.5837 -5.601888,3.5837 l -24.270561,0 c -3.67422,0 -4.515153,-1.3584 -5.912392,-3.5837 L 2.2661433,1023.6393 c -0.62099,-1.1127 -1.0349878,-1.9018 -1.0608642,-3.3378 0,-1.8501 0.5821818,-2.6523 1.0608642,-3.4285 L 14.155613,996.30249 c 1.241993,-2.2511 2.742731,-3.57072 5.601895,-3.57072 z"/><path id="path18880" fill="#fff" d="m 10.183833,1011.711 0,16.4176 6.766258,0 c 5.291396,0 8.693932,-3.5836 8.693932,-8.2024 0,-5.3561 -2.755662,-8.2023 -8.849178,-8.2023 l -6.611012,0 0,-0.012 z m 3.97178,2.9627 1.86299,0 c 3.234346,0 5.446641,1.3972 5.446641,5.1361 0,3.299 -1.539552,5.369 -5.446641,5.369 l -1.86299,0 0,-10.5051 z"/><path id="path18884" fill="#fff" d="m 26.989517,1027.7533 0,-3.092 c 0,0 2.613348,0.621 4.864459,0.621 2.445165,0 3.506035,-0.7116 3.506035,-2.0053 0,-3.6613 -8.202311,-0.5434 -8.202311,-7.1026 0,-3.1697 2.432226,-4.7609 6.688635,-4.7609 2.238167,0 4.579839,0.3363 4.579839,0.3363 l 0,2.9886 c 0,0 -2.173482,-0.3105 -3.971781,-0.3105 -2.18642,0 -3.104976,0.401 -3.104976,1.5913 0,3.1307 8.318742,0.4786 8.318742,7.0767 0,2.704 -1.500732,5.3173 -7.167316,5.3173 -3.363722,-0.013 -5.511326,-0.6599 -5.511326,-0.6599 l 0,0 z"/><path id="path18886" fill="#fff" d="m 41.854586,1011.711 0,16.4951 6.067639,0 c 5.964139,0 7.206125,-2.1605 7.206125,-4.8127 0,-2.9368 -2.50985,-3.6095 -3.790657,-3.7001 l 0,-0.5692 c 2.044112,-0.2457 3.092038,-1.449 3.092038,-3.3119 0,-2.5098 -1.668923,-4.1141 -5.744202,-4.1141 l -6.830943,0.013 0,0 z m 3.881219,2.8075 2.173481,0 c 1.953545,0 2.626293,0.7373 2.626293,1.7206 0,1.2808 -0.763309,2.0959 -2.936791,2.0959 l -1.862983,0 0,-3.8165 z m 0,6.5333 1.707737,0 c 2.432227,0 3.583659,0.4915 3.583659,2.2123 0,1.022 -0.465751,1.9923 -2.807417,1.9923 l -2.483979,0 0,-4.2046 z"/></g></svg>