<svg xmlns="http://www.w3.org/2000/svg" xmlns:svg="http://www.w3.org/2000/svg" id="svg2" width="64" height="64" version="1.1"><metadata id="metadata7"/><rect id="rect2989" width="64" height="64" x="0" y="0" fill="#fff" fill-opacity="1" stroke="none"/><path id="path3798" fill="#00b273" fill-opacity="1" stroke="none" d="m 0,0 0,32 c 0,17.673088 14.326889,32 32,32 l 32,0 0,-32 C 64,14.326874 49.673112,0 32,0 z"/><path id="path2998" fill="#fff" fill-opacity="1" stroke="none" d="m 19.748565,25.949766 6.20097,0 0,-4.214253 -16.9774198,0 0,4.214253 6.2009698,0 0,16.315185 4.57548,0 z m 15.23151,8.368305 9.75457,0 -0.0316,-4.12395 -9.72289,-0.03082 0,-4.273745 11.039627,0.07491 0.0078,-4.198852 -15.62284,-0.03056 0,20.529889 4.57547,0 z m 20.04781,-12.582558 -4.57548,0 0,20.529438 4.57548,0 z"/></svg>