<svg xmlns="http://www.w3.org/2000/svg" xmlns:svg="http://www.w3.org/2000/svg" id="svg4199" width="64" height="64" version="1.1"><metadata id="metadata4211"/><circle id="path4143" cx="32" cy="32" r="32" fill="#fff" fill-opacity="1" fill-rule="nonzero" stroke="none" stroke-dasharray="none" stroke-dashoffset="0" stroke-linecap="square" stroke-linejoin="round" stroke-miterlimit="10" stroke-opacity="1" stroke-width="1.778" opacity="1"/><path id="path4205" fill="red" d="m 31.999085,7 -4.043037,7.540775 c -0.458768,0.819556 -1.280742,0.743542 -2.102718,0.285794 l -2.927051,-1.515684 2.181577,11.582472 c 0.458768,2.116052 -1.013167,2.116052 -1.739573,1.201108 l -5.108274,-5.718635 -0.829318,2.904059 c -0.09563,0.381365 -0.516126,0.781918 -1.146961,0.686531 l -6.4594691,-1.358118 1.6966211,6.168267 c 0.363201,1.372509 0.646507,1.940774 -0.366667,2.302766 l -2.302363,1.082104 11.119558,9.032105 c 0.440119,0.341512 0.662484,0.956088 0.505799,1.512544 l -0.973198,3.193727 c 3.828628,-0.441329 7.259138,-1.105296 11.089705,-1.514215 0.338161,-0.0361 0.904282,0.521965 0.901961,0.913846 L 30.988389,57 32.849887,57 32.556865,45.324539 c -0.0023,-0.391882 0.511256,-0.975039 0.849417,-0.938939 3.830566,0.408919 7.261082,1.072886 11.089709,1.514215 l -0.973196,-3.193727 c -0.156686,-0.556456 0.06568,-1.171032 0.505798,-1.512544 l 11.119555,-9.032105 -2.302361,-1.082104 c -1.013176,-0.361992 -0.72987,-0.930257 -0.366668,-2.302766 l 1.696624,-6.168267 -6.459472,1.358118 c -0.630836,0.09539 -1.051326,-0.305166 -1.146963,-0.686531 L 45.739989,20.37583 40.63172,26.094465 c -0.726411,0.914944 -2.198346,0.914944 -1.739577,-1.201108 l 2.181572,-11.582472 -2.927044,1.515684 c -0.821997,0.457748 -1.64395,0.533762 -2.102721,-0.285794"/><g id="text4164" fill="#000" fill-opacity="1" stroke="none" stroke-linecap="butt" stroke-linejoin="miter" stroke-opacity="1" stroke-width="1" font-family="FreeSans" font-size="13.318" font-stretch="normal" font-style="normal" font-variant="normal" font-weight="normal" letter-spacing="0" word-spacing="0" style="line-height:125%;-inkscape-font-specification:FreeSans"><path id="path4137" fill="#000" d="m 42.232839,52.458937 q 0,1.326561 -0.429181,2.308476 -0.429182,0.975412 -1.190003,1.567163 l 1.573665,1.235522 -1.242025,1.098965 -2.015852,-1.619185 q -0.344646,0.05853 -0.715303,0.05853 -1.176997,0 -2.100388,-0.565739 -0.92339,-0.56574 -1.430604,-1.612682 -0.507215,-1.053445 -0.513718,-2.419023 l 0,-0.468198 q 0,-1.398091 0.500712,-2.458039 0.507214,-1.066451 1.424102,-1.63219 0.92339,-0.572242 2.106891,-0.572242 1.1835,0 2.100388,0.572242 0.92339,0.565739 1.424102,1.63219 0.507214,1.059948 0.507214,2.451537 l 0,0.422678 z m -1.976836,-0.429181 q 0,-1.48913 -0.533225,-2.262957 -0.533225,-0.773827 -1.521643,-0.773827 -0.981915,0 -1.515141,0.767324 -0.533225,0.760822 -0.539728,2.236946 l 0,0.461695 q 0,1.450113 0.533225,2.249951 0.533226,0.799839 1.534649,0.799839 0.981915,0 1.508638,-0.767325 0.526723,-0.773827 0.533225,-2.249951 l 0,-0.461695 z" font-family="Roboto" font-stretch="normal" font-style="normal" font-variant="normal" font-weight="bold" style="-inkscape-font-specification:'Roboto Bold'"/><path id="path4139" fill="#000" d="m 51.109091,53.824515 q -0.110546,1.528146 -1.131478,2.406017 -1.014429,0.877871 -2.679133,0.877871 -1.820769,0 -2.867712,-1.222517 -1.04044,-1.22902 -1.04044,-3.368424 l 0,-0.578745 q 0,-1.365577 0.481204,-2.406017 0.481203,-1.04044 1.37208,-1.593173 0.897379,-0.559237 2.080879,-0.559237 1.638693,0 2.640116,0.877871 1.001424,0.877872 1.15749,2.464542 l -1.950825,0 q -0.07153,-0.916887 -0.513717,-1.32656 -0.435684,-0.416176 -1.333064,-0.416176 -0.975412,0 -1.463118,0.702296 -0.481204,0.695795 -0.494209,2.165416 l 0,0.715302 q 0,1.534649 0.461695,2.243449 0.468198,0.708799 1.469621,0.708799 0.903882,0 1.346069,-0.409673 0.44869,-0.416176 0.513718,-1.281041 l 1.950824,0 z" font-family="Roboto" font-stretch="normal" font-style="normal" font-variant="normal" font-weight="bold" style="-inkscape-font-specification:'Roboto Bold'"/></g></svg>