<svg xmlns="http://www.w3.org/2000/svg" xmlns:svg="http://www.w3.org/2000/svg" id="svg4136" width="96" height="96" version="1.1" viewBox="0 0 96 96"><defs id="defs4138"><clipPath id="clipPath3470" clipPathUnits="userSpaceOnUse"><path id="path3472" d="m 0,0 937.559,0 0,841.89 L 0,841.89 0,0 Z"/></clipPath><clipPath id="clipPath3506" clipPathUnits="userSpaceOnUse"><path id="path3508" d="m 1119.766,4.513 39.711,0 0,26.33 -39.711,0 0,-26.33 z"/></clipPath></defs><metadata id="metadata4141"/><g id="layer1" transform="translate(0,-956.36216)"><rect id="rect4267" width="96" height="96" x="0" y="956.362" fill="#fff" fill-opacity="1" stroke="#01ffff" stroke-dasharray="none" stroke-linecap="butt" stroke-linejoin="miter" stroke-miterlimit="0" stroke-opacity="1" stroke-width="0"/><path id="path2418" fill="#ed1c24" fill-opacity="1" fill-rule="nonzero" stroke="none" d="m 63.295815,986.02986 c -4.680984,0 -8.482957,3.92555 -8.482948,8.7389 0,4.72559 3.79905,8.64744 8.373255,8.64744 2.264073,0 4.52667,-1.0332 6.01485,-2.8154 1.488899,-1.78363 1.724385,-3.64915 1.681959,-5.92346 l -6.691286,0 0,1.73681 4.75337,0 c 0,3.12042 -2.969777,5.26535 -5.795454,5.26535 -1.704635,0 -3.437798,-0.9134 -4.62541,-2.13909 -1.206626,-1.2717 -1.88306,-2.96975 -1.88306,-4.75337 0,-3.7888 2.925864,-7.02036 6.636438,-7.02038 2.393509,0 4.23488,1.18763 5.594363,2.90689 l 1.316318,-1.27977 c -1.725114,-2.05199 -4.044742,-3.36391 -6.892395,-3.36392 z m -38.027008,0.76785 5.886871,16.27129 5.448099,0 5.795464,-16.27129 -4.661961,0 -3.747854,12.10283 -3.729578,-12.10283 z m 20.494362,0 -6.124543,16.27129 3.693008,0 1.042084,-3.23609 6.435338,0 1.060371,3.23609 3.766139,0 -5.649209,-16.27129 z m 1.956193,3.45534 2.358413,6.61816 -4.661971,0 z m -21.024543,6.83756 c -9.908959,3.43409 -13.656814,5.44809 -13.656814,5.44809 -11.6260223,5.6806 -10.823075,11.2253 -10.823075,11.2253 0.5294427,5.549 9.908959,7.6602 9.908959,7.6602 11.621643,3.1197 24.443327,1.9928 24.443327,1.9928 21.666601,-0.528 40.202586,-8.0442 40.202586,-8.0442 15.192527,-5.813 17.258413,-12.3038 17.258413,-12.3038 l -0.749567,0.037 c -3.882398,6.8097 -16.892772,11.0607 -16.892772,11.0607 -8.411281,3.4955 -21.828966,5.6309 -21.828966,5.6309 -19.334542,2.9581 -30.878654,1.042 -30.878654,1.042 -17.0624303,-1.9958 -16.454,-8.2636 -16.454,-8.2636 -0.4153603,-7.7071 19.945897,-14.5345 19.945897,-14.5345 z"/></g></svg>