<svg xmlns="http://www.w3.org/2000/svg" xmlns:svg="http://www.w3.org/2000/svg" id="svg4136" width="96" height="96" version="1.1" viewBox="0 0 96 96"><defs id="defs4138"><clipPath id="clipPath3470" clipPathUnits="userSpaceOnUse"><path id="path3472" d="m 0,0 937.559,0 0,841.89 L 0,841.89 0,0 Z"/></clipPath><clipPath id="clipPath3506" clipPathUnits="userSpaceOnUse"><path id="path3508" d="m 1119.766,4.513 39.711,0 0,26.33 -39.711,0 0,-26.33 z"/></clipPath><clipPath id="clipPath3470-9" clipPathUnits="userSpaceOnUse"><path id="path3472-6" d="m 0,0 937.559,0 0,841.89 L 0,841.89 0,0 Z"/></clipPath><clipPath id="clipPath3506-0" clipPathUnits="userSpaceOnUse"><path id="path3508-8" d="m 1119.766,4.513 39.711,0 0,26.33 -39.711,0 0,-26.33 z"/></clipPath></defs><metadata id="metadata4141"/><g id="layer1" transform="translate(0,-956.36216)"><rect id="rect4267" width="96" height="96" x="0" y="956.362" fill="#fff" fill-opacity="1" stroke="#01ffff" stroke-dasharray="none" stroke-linecap="butt" stroke-linejoin="miter" stroke-miterlimit="0" stroke-opacity="1" stroke-width="0"/><g id="g3344" transform="matrix(0.28952834,0,0,-0.28952834,-559.39098,1036.1843)"><g id="g3466"><g id="g3468" clip-path="url(#clipPath3470-9)"><g id="g3474" transform="translate(938.7733,646.7622)"><path id="path3476" fill="none" stroke="#8ab5dd" stroke-dasharray="none" stroke-linecap="butt" stroke-linejoin="miter" stroke-miterlimit="4" stroke-opacity="1" stroke-width=".5" d="M 0,0 0,-195.591"/></g></g></g><g id="g3502" transform="matrix(8,0,0,8,-7019.1218,-31.5882)"><g id="g3504" clip-path="url(#clipPath3506-0)"><g id="g3510" transform="translate(1129.5336,30.9163)"><path id="path3512" fill="none" stroke="#005ea8" stroke-dasharray="none" stroke-linecap="butt" stroke-linejoin="miter" stroke-miterlimit="3.864" stroke-opacity="1" stroke-width=".499" d="M 0,0 0,-26.949 M 10.388,0 l 0,-26.949 M 20.775,0 l 0,-26.949 m -30.806,20.799 40.007,0 m -40.007,-6.684 40.007,0 m -40.007,-6.399 40.007,0"/></g></g></g><g id="g3514" transform="matrix(8,0,0,8,1939.0102,162.6446)"><path id="path3516" fill="#000" fill-opacity="1" fill-rule="nonzero" stroke="none" d="M 0,0 10.231,-6.58 14.077,-6.01 0,3.301 0,0 Z"/></g><g id="g3518" transform="matrix(8,0,0,8,1986.915,215.1558)"><path id="path3520" fill="#000" fill-opacity="1" fill-rule="nonzero" stroke="none" d="m 0,0 11.922,-7.678 3.846,0.57 L 4.997,0 0,0 Z"/></g><g id="g3522" transform="matrix(8,0,0,8,2159.9854,215.1558)"><path id="path3524" fill="#005ea8" fill-opacity="1" fill-rule="nonzero" stroke="none" d="m 0,0 -27.622,-19.799 0,-3.429 L 4.468,0 0,0 Z"/></g><g id="g3526" transform="matrix(8,0,0,8,2220.6558,215.1558)"><path id="path3528" fill="#fd0" fill-opacity="1" fill-rule="nonzero" stroke="none" d="m 0,0 -35.206,-25.235 0,-0.432 1.785,-0.663 1.484,0 L 3.481,-0.693 3.635,0 0,0 Z"/></g><g id="g3530" transform="matrix(8,0,0,8,2094.1982,61.4646)"><path id="path3532" fill="#000" fill-opacity="1" fill-rule="nonzero" stroke="none" d="m 0,0 10.806,-7.119 4.725,0 L 2.451,1.534 0,0 Z"/></g><g id="g3534" transform="matrix(8,0,0,8,2149.5022,107.6238)"><path id="path3536" fill="#000" fill-opacity="1" fill-rule="nonzero" stroke="none" d="m 0,0 13.399,-8.661 0,3.127 L 1.551,2.255 0,0 Z"/></g><g id="g3538" transform="matrix(8,0,0,8,1983.2582,4.5126)"><path id="path3540" fill="#e2001a" fill-opacity="1" fill-rule="nonzero" stroke="none" d="M 0,0 4.744,0 34.18,21.307 34.18,24.5 0,0 Z"/></g></g></g></svg>