<svg xmlns="http://www.w3.org/2000/svg" xmlns:svg="http://www.w3.org/2000/svg" id="svg4136" width="96" height="96" version="1.1" viewBox="0 0 96 96"><defs id="defs4138"><clipPath id="clipPath3470" clipPathUnits="userSpaceOnUse"><path id="path3472" d="m 0,0 937.559,0 0,841.89 L 0,841.89 0,0 Z"/></clipPath><clipPath id="clipPath3506" clipPathUnits="userSpaceOnUse"><path id="path3508" d="m 1119.766,4.513 39.711,0 0,26.33 -39.711,0 0,-26.33 z"/></clipPath></defs><metadata id="metadata4141"/><g id="layer1" transform="translate(0,-956.36216)"><rect id="rect4267" width="96" height="96" x="0" y="956.362" fill="#fff" fill-opacity="1" stroke="#01ffff" stroke-dasharray="none" stroke-linecap="butt" stroke-linejoin="miter" stroke-miterlimit="0" stroke-opacity="1" stroke-width="0"/><path id="path2523" fill="#007e32" fill-opacity="1" fill-rule="nonzero" stroke="none" d="m 49.741153,958.54145 0,14.48434 26.413802,15.03792 0,32.13289 -26.413802,15.5816 0,14.4483 38.92957,-22.1785 0,-47.69159 -38.92957,-21.81496"/><path id="path2525" fill="#55ab26" fill-opacity="1" fill-rule="nonzero" stroke="none" d="m 45.767947,958.54145 -38.8837113,21.81496 0,47.69159 38.8837113,22.1785 0,-14.4483 -26.417075,-15.5816 0,-32.13289 26.417075,-15.03792 0,-14.48434"/><path id="path2527" fill="#007e32" fill-opacity="1" fill-rule="nonzero" stroke="none" d="m 25.194397,996.73401 3.989587,0 3.924075,10.40309 0.04586,0 3.98958,-10.40309 3.743924,0 -6.547765,15.87319 -2.803847,0 -6.341412,-15.87319"/><path id="path2529" fill="#007e32" fill-opacity="1" fill-rule="nonzero" stroke="none" d="m 42.548107,996.73401 6.138326,0 c 3.252597,0 5.987658,1.12024 5.987658,4.81829 0,2.2208 -1.18574,3.947 -3.426201,4.3532 l 4.032172,6.7017 -4.192667,0 -3.318103,-6.3447 -1.726198,0 0,6.3447 -3.494987,0 0,-15.87319 z m 3.494987,6.56739 2.063577,0 c 1.277448,0 2.934866,-0.042 2.934866,-1.7687 0,-1.59195 -1.431403,-1.84089 -2.708858,-1.84089 l -2.289585,0 0,3.60959"/><path id="path2531" fill="#007e32" fill-opacity="1" fill-rule="nonzero" stroke="none" d="m 57.071766,996.73401 6.148154,0 c 3.249319,0 5.984379,1.12024 5.984379,4.81829 0,2.2208 -1.185738,3.947 -3.42947,4.3532 l 4.035442,6.7017 -4.192667,0 -3.318105,-6.3447 -1.729472,0 0,6.3447 -3.498261,0 0,-15.87319 z m 3.498261,6.56739 2.063577,0 c 1.277455,0 2.941419,-0.042 2.941419,-1.7687 0,-1.59195 -1.437956,-1.84089 -2.715411,-1.84089 l -2.289585,0 0,3.60959"/></g></svg>