<svg xmlns="http://www.w3.org/2000/svg" xmlns:svg="http://www.w3.org/2000/svg" id="svg2" width="64" height="64" version="1.1" xml:space="preserve"><title id="title4710">Logo of Ingolstädter Verkehrsgesellschaft (INVG), Germany</title><metadata id="metadata8"/><defs id="defs6"><clipPath id="clipPath16"><path id="path18" d="m -9,-9 1209,0 0,1702 -1209,0 0,-1702 z"/></clipPath></defs><g id="g10" transform="matrix(1.25,0,0,-1.25,56.250001,7.7921444)"><g id="g26951" transform="matrix(3.1345968,0,0,3.1345968,-185.82958,-616.98722)"><g id="g26939" transform="matrix(0.20869618,0,0,0.20869489,35.77285,143.04414)"><path id="path11788" fill="#00a650" fill-opacity="1" fill-rule="nonzero" stroke="none" d="m 86.3887,267.2606 -7.0767,0 -28.0041,-34.5798 0,-8.739 35.0808,43.3188 z"/><path id="path11790" fill="#fcd205" fill-opacity="1" fill-rule="nonzero" stroke="none" d="m 93.4634,267.2606 -7.0742,0 -35.0807,-43.3188 0,-8.7344 42.1549,52.0532 z"/><path id="path11792" fill="#e19914" fill-opacity="1" fill-rule="nonzero" stroke="none" d="m 51.3085,215.2077 0,-8.7398 49.2293,60.793 -7.0744,0 -42.1549,-52.0532 z"/><path id="path11794" fill="#66cef5" fill-opacity="1" fill-rule="nonzero" stroke="none" d="m 51.3085,206.4671 0,-8.7364 56.3046,69.5293 -7.0753,0 -49.2293,-60.7929 z"/><path id="path11796" fill="#ed192e" fill-opacity="1" fill-rule="nonzero" stroke="none" d="m 107.6131,267.2606 -56.3049,-69.5299 0,-8.7364 63.3816,78.2663 -7.0767,0 z"/><path id="path11798" fill="#80cc28" fill-opacity="1" fill-rule="nonzero" stroke="none" d="m 114.6898,258.5242 0,8.7367 -63.3813,-78.2666 7.0767,0 56.3046,69.5299 z"/><path id="path11800" fill="#b30f8e" fill-opacity="1" fill-rule="nonzero" stroke="none" d="m 114.6898,249.7878 0,8.7364 -56.3046,-69.5293 7.0764,0 49.2282,60.7929 z"/><path id="path11802" fill="#0e88d3" fill-opacity="1" fill-rule="nonzero" stroke="none" d="m 72.5369,188.9943 42.1523,52.0555 0,8.7378 -49.2267,-60.7933 7.0744,0 z"/><path id="path11804" fill="#f89c0e" fill-opacity="1" fill-rule="nonzero" stroke="none" d="m 72.5369,188.9943 7.0744,0 35.0779,43.3188 0,8.7367 -42.1523,-52.0555 z"/><path id="path11806" fill="#cce310" fill-opacity="1" fill-rule="nonzero" stroke="none" d="m 79.6116,188.9943 7.0744,0 28.004,34.5799 0,8.7389 -35.0784,-43.3188 z"/></g></g></g></svg>