<svg xmlns="http://www.w3.org/2000/svg" xmlns:svg="http://www.w3.org/2000/svg" id="svg4136" width="64" height="64" version="1.1" viewBox="0 0 64 64"><defs id="defs4138"><clipPath id="clipPath3470" clipPathUnits="userSpaceOnUse"><path id="path3472" d="m 0,0 937.559,0 0,841.89 L 0,841.89 0,0 Z"/></clipPath><clipPath id="clipPath3506" clipPathUnits="userSpaceOnUse"><path id="path3508" d="m 1119.766,4.513 39.711,0 0,26.33 -39.711,0 0,-26.33 z"/></clipPath></defs><metadata id="metadata4141"/><g id="layer1" transform="translate(0,-988.36216)"><rect id="rect4267" width="64" height="64" x="0" y="988.362" fill="#fff" fill-opacity="1" fill-rule="nonzero" stroke="#01ffff" stroke-dasharray="none" stroke-linecap="butt" stroke-linejoin="miter" stroke-miterlimit="0" stroke-opacity="1" stroke-width="0"/><path id="path4090" fill="#ec1b24" fill-rule="nonzero" stroke="none" stroke-dasharray="none" stroke-linecap="butt" stroke-linejoin="miter" stroke-miterlimit="3.864" stroke-width=".567" d="m 31.877923,1050.973 c -12.978043,0 -24.0930067,-8.0663 -28.5813332,-19.4564 l 7.5793372,0 c 4.001388,7.4734 11.91949,12.5757 21.001996,12.5757 l 0,6.8807" font-family="fnt3" font-size="7" letter-spacing="0" word-spacing="0"/><path id="path4092" fill="#ec1b24" fill-rule="nonzero" stroke="none" stroke-dasharray="none" stroke-linecap="butt" stroke-linejoin="miter" stroke-miterlimit="3.864" stroke-width=".567" d="m 56.394333,1038.736 c -1.397316,1.863 -3.006334,3.5568 -4.784736,5.0388 l -4.424797,-5.2717 c 1.397285,-1.1433 2.625251,-2.4559 3.726154,-3.8955 l 5.483379,4.1284" font-family="fnt3" font-size="7" letter-spacing="0" word-spacing="0"/><path id="path4094" fill="#ec1b24" fill-rule="nonzero" stroke="none" stroke-dasharray="none" stroke-linecap="butt" stroke-linejoin="miter" stroke-miterlimit="3.864" stroke-width=".567" d="m 46.994242,1046.9928 c -2.752279,1.5667 -5.77976,2.7099 -8.997798,3.3663 l -1.354995,-6.7537 c 2.477076,-0.5081 4.827093,-1.3973 6.965371,-2.6041 l 3.387422,5.9915" font-family="fnt3" font-size="7" letter-spacing="0" word-spacing="0"/><path id="path4096" fill="#ec1b24" fill-rule="nonzero" stroke="none" stroke-dasharray="none" stroke-linecap="butt" stroke-linejoin="miter" stroke-miterlimit="3.864" stroke-width=".567" d="m 16.761569,993.53517 c 2.773454,-1.5667 5.800967,-2.70993 8.997829,-3.36625 l 1.37614,6.75367 c -2.498221,0.50812 -4.848236,1.39728 -6.986548,2.60407 l -3.387421,-5.99149" font-family="fnt3" font-size="7" letter-spacing="0" word-spacing="0"/><path id="path4098" fill="#ec1b24" fill-rule="nonzero" stroke="none" stroke-dasharray="none" stroke-linecap="butt" stroke-linejoin="miter" stroke-miterlimit="3.864" stroke-width=".567" d="m 31.877923,989.57614 c 12.978007,0 24.092971,8.06627 28.581298,19.45646 l -7.579339,0 c -4.001387,-7.4947 -11.919457,-12.59695 -21.001959,-12.59695 l 0,-6.85951" font-family="fnt3" font-size="7" letter-spacing="0" word-spacing="0"/><path id="path4100" fill="#ec1b24" fill-rule="nonzero" stroke="none" stroke-dasharray="none" stroke-linecap="butt" stroke-linejoin="miter" stroke-miterlimit="3.864" stroke-width=".567" d="m 7.3615082,1001.792 c 1.3972838,-1.86311 3.0063038,-3.5568 4.7847058,-5.0388 l 4.424828,5.2717 c -1.376139,1.1432 -2.625249,2.4558 -3.70501,3.8955 l -5.5045238,-4.1284" font-family="fnt3" font-size="7" letter-spacing="0" word-spacing="0"/><path id="path4102" fill="#ec1b24" fill-rule="nonzero" stroke="none" stroke-dasharray="none" stroke-linecap="butt" stroke-linejoin="miter" stroke-miterlimit="3.864" stroke-width=".567" d="m 36.93786,1023.7466 c -0.740994,3.3451 -3.429742,4.7212 -6.647814,4.7212 l -6.732457,0 3.747299,-16.5136 6.436109,0 c 3.556773,0 5.271644,1.5032 4.657679,4.2131 -0.465763,2.1171 -1.651342,3.1969 -3.027481,3.7685 1.376139,0.6352 1.990106,1.969 1.566665,3.8108 z m -6.880693,1.2492 c 1.18561,0 1.968928,-0.5716 2.222985,-1.6937 0.254057,-1.1009 -0.190526,-1.6726 -1.206757,-1.6726 l -1.206756,0 -0.762172,3.3663 z m 15.899701,-6.4996 c 1.016196,0 1.968959,-0.3811 2.244163,-1.6302 0.254025,-1.0586 -0.296411,-1.5243 -1.206789,-1.5243 l -0.995053,0 -0.698642,3.1545 z m 5.716258,5.2504 c -0.762172,3.3451 -3.450951,4.7212 -6.66899,4.7212 l -6.732491,0 3.747333,-16.5136 6.436078,0 c 3.556804,0 5.292851,1.5032 4.657708,4.2131 -0.465761,2.1171 -1.651373,3.1969 -3.027512,3.7685 1.376139,0.6352 1.990106,1.969 1.587874,3.8108 z m -6.901871,1.2492 c 1.185613,0 1.968928,-0.5716 2.222987,-1.6937 0.254058,-1.1009 -0.190528,-1.6726 -1.185581,-1.6726 l -1.227932,0 -0.762174,3.3663 z m -24.17768,-13.0416 5.356351,0 -8.764918,16.5136 -5.377527,0 -1.31264,-16.5136 5.462234,0 0.06343,9.9294 4.573002,-9.9294 z m 9.992881,6.542 0.656321,0 c 1.016231,0 1.968962,-0.3811 2.244163,-1.6302 0.254057,-1.0586 -0.29641,-1.5243 -1.206788,-1.5243 l -0.995053,0 -0.698643,3.1545" font-family="fnt3" font-size="7" letter-spacing="0" word-spacing="0"/></g></svg>