<svg xmlns="http://www.w3.org/2000/svg" xmlns:svg="http://www.w3.org/2000/svg" id="svg4136" width="96" height="96" version="1.1" viewBox="0 0 96 96"><defs id="defs4138"><clipPath id="clipPath3470" clipPathUnits="userSpaceOnUse"><path id="path3472" d="m 0,0 937.559,0 0,841.89 L 0,841.89 0,0 Z"/></clipPath><clipPath id="clipPath3506" clipPathUnits="userSpaceOnUse"><path id="path3508" d="m 1119.766,4.513 39.711,0 0,26.33 -39.711,0 0,-26.33 z"/></clipPath></defs><metadata id="metadata4141"/><g id="layer1" transform="translate(0,-956.36216)"><rect id="rect4267" width="96" height="96" x="0" y="956.362" fill="#fff" fill-opacity="1" fill-rule="nonzero" stroke="#01ffff" stroke-dasharray="none" stroke-linecap="butt" stroke-linejoin="miter" stroke-miterlimit="0" stroke-opacity="1" stroke-width="0"/><path id="blue" fill="#0068b4" fill-opacity="1" fill-rule="nonzero" stroke="none" d="m 77.6226,994.87111 0,4.71677 15.969502,0 0,-4.71677 -15.969502,0 z m 0.03893,7.43549 0,4.7168 15.911103,0 0,-4.7168 -15.911103,0 z m -0.03893,7.4183 0,4.7168 15.969502,0 0,-4.7168 -15.969502,0 z"/><path id="green" fill="#309d25" fill-opacity="1" fill-rule="nonzero" stroke="none" d="m 77.6226,994.87111 c -3.304128,0 -6.320954,1.87633 -7.924967,4.71965 l 7.924967,-0.003 0,-4.71677 z m -9.112323,7.43839 c -0.13325,0.5967 -0.322559,1.7086 -0.32256,2.3469 0,0.6599 0.169624,1.7499 0.32256,2.367 l 9.151253,0 0,-4.7168 -9.151253,0 z m 9.112323,7.4125 -7.924967,0 c 1.604013,2.822 4.620838,4.7167 7.924967,4.7167 l 0,-4.7196 z"/><path id="black" fill="#1a1b1f" fill-opacity="1" fill-rule="nonzero" stroke="none" d="m 77.6226,994.87111 0,4.71677 8.005607,0 c -1.605016,-2.8424 -4.509501,-4.71677 -7.833204,-4.71677 -0.05795,0 -0.114565,0 -0.172403,0 z m 0.03893,7.43839 0,4.7139 9.187401,0 c 0.268725,-0.803 0.364269,-1.7071 0.364269,-2.367 -10e-7,-0.6383 -0.07875,-1.7694 -0.383735,-2.3469 l -9.167935,0 z m -0.03893,7.4154 0,4.7168 c 0.03826,0 0.09521,0 0.133473,0 l 0.07786,0 c 3.285553,-0.02 6.244652,-1.8948 7.869353,-4.7168 l -8.080686,0 z"/><path id="VVO" fill="#1b1c20" fill-opacity="1" fill-rule="nonzero" stroke="none" d="m 52.999587,994.43 c -5.554261,0 -10.038292,4.5741 -10.038292,10.2466 0,5.6714 4.48403,10.2436 10.038292,10.2436 5.527903,0 10.010485,-4.5722 10.010485,-10.2436 2e-6,-5.6725 -4.482584,-10.2466 -10.010485,-10.2466 z m -51.0951844,0.44111 7.9027219,19.52729 3.8790625,0 7.913845,-19.52729 -5.494644,0 -3.3841,9.99289 c -0.508867,1.2627 -0.745003,2.5162 -0.970461,3.5145 -0.481393,-2.0159 -0.54635,-2.399 -0.912067,-3.4338 l -3.4480554,-10.07359 -5.486302,0 z m 21.0470444,0 7.902722,19.52729 3.879064,0 7.913845,-19.52729 -5.494645,0 -3.384101,9.99289 c -0.509867,1.2627 -0.744112,2.5162 -0.97046,3.5145 -0.480504,-2.0159 -0.54635,-2.399 -0.912066,-3.4338 l -3.448056,-10.07359 -5.486303,0 z m 30.04814,4.08825 c 2.751216,0 4.927383,2.67784 4.927383,5.76624 -10e-7,3.0884 -2.176168,5.697 -4.927383,5.697 -2.776685,0 -4.935725,-2.6587 -4.935725,-5.746 -2e-6,-3.0893 2.159039,-5.71724 4.935725,-5.71724 z"/></g></svg>