<svg xmlns="http://www.w3.org/2000/svg" xmlns:svg="http://www.w3.org/2000/svg" id="svg4136" width="64" height="64" version="1.1" viewBox="0 0 64 64"><defs id="defs4138"><clipPath id="clipPath3470" clipPathUnits="userSpaceOnUse"><path id="path3472" d="m 0,0 937.559,0 0,841.89 L 0,841.89 0,0 Z"/></clipPath><clipPath id="clipPath3506" clipPathUnits="userSpaceOnUse"><path id="path3508" d="m 1119.766,4.513 39.711,0 0,26.33 -39.711,0 0,-26.33 z"/></clipPath></defs><metadata id="metadata4141"/><g id="layer1" transform="translate(0,-988.36216)"><polygon id="polygon5" fill="#1b325f" points="310.393 153.07 310.393 0 0 0 0 0 0 153.07" transform="matrix(0.20619022,0,0,0.41810936,0,988.36216)"/><polygon id="polygon7" fill="#fff" points="110.571 34.016 148.11 119.055 158.031 119.055 195.59 34.016 175.748 34.016 175.748 34.016 153.071 87.874 130.393 34.016" transform="matrix(0.20619022,0,0,0.20619022,-5e-7,1004.5814)"/><polygon id="polygon9" fill="#fff" points="276.378 34.017 257.952 34.017 257.952 68.033 218.267 68.031 218.267 34.015 199.842 34.015 199.842 119.054 218.267 119.054 218.267 85.039 257.952 85.04 257.952 119.056 276.378 119.056 276.378 119.056" transform="matrix(0.20619022,0,0,0.20619022,-5e-7,1004.5814)"/><path id="path11" fill="#fff" d="m 24.372508,1018.6089 -8.59174,0 0,3.5079 5.145683,0 c -0.83136,2.7178 -3.344612,4.0933 -5.588993,4.0933 -3.248114,0 -5.8906476,-2.6427 -5.8906476,-5.8909 0,-3.2481 2.6425336,-5.8908 5.8906476,-5.8908 1.160851,0 2.372012,0.3301 3.48544,1.141 l 2.340877,-2.332 c -1.724162,-1.4087 -3.78792,-2.0809 -5.826317,-2.0809 -5.077434,0 -9.2084544,4.1311 -9.2084544,9.2089 0,5.0776 4.1310204,9.2084 9.2084544,9.2084 4.887327,0 8.925563,-3.8188 9.193609,-8.6944 8.36e-4,-0.015 0.0019,-0.029 0.0031,-0.041 0.008,-0.1545 0.01217,-0.3153 0.01217,-0.4726 0,-0.4803 -0.05979,-1.2159 -0.173818,-1.7565 l 0,0 z"/></g></svg>