<svg xmlns="http://www.w3.org/2000/svg" xmlns:svg="http://www.w3.org/2000/svg" id="svg4136" width="96" height="96" version="1.1" viewBox="0 0 96 96"><defs id="defs4138"><clipPath id="clipPath3470" clipPathUnits="userSpaceOnUse"><path id="path3472" d="m 0,0 937.559,0 0,841.89 L 0,841.89 0,0 Z"/></clipPath><clipPath id="clipPath3506" clipPathUnits="userSpaceOnUse"><path id="path3508" d="m 1119.766,4.513 39.711,0 0,26.33 -39.711,0 0,-26.33 z"/></clipPath></defs><metadata id="metadata4141"/><g id="layer1" transform="translate(0,-956.36216)"><rect id="rect4267" width="96" height="96" x="0" y="956.362" fill="#fff" fill-opacity="1" stroke="#01ffff" stroke-dasharray="none" stroke-linecap="butt" stroke-linejoin="miter" stroke-miterlimit="0" stroke-opacity="1" stroke-width="0"/><g id="g5090" transform="matrix(0.70789451,0,0,-0.70789451,94.113017,1006.1941)"><path id="path5092" fill="#00a650" fill-opacity="1" fill-rule="nonzero" stroke="none" d="m 0,0 0,14.288 -56.163,0 0,14.288 -23.815,-23.813 52.344,0 L -32.399,0 0,0 Z"/></g><g id="g5094" transform="matrix(0.70789451,0,0,-0.70789451,74.587871,1002.8223)"><path id="path5096" fill="#005aaa" fill-opacity="1" fill-rule="nonzero" stroke="none" d="m 0,0 -102.248,0 0,-14.287 73.671,0 0,-14.289 L 0,0 Z"/></g><g id="g5098" transform="matrix(0.70789451,0,0,-0.70789451,67.97826,1002.8223)"><path id="path5100" fill="#fff" fill-opacity="1" fill-rule="nonzero" stroke="none" d="m 0,0 -2.381,0 -1.539,-6.544 -0.049,0 L -5.46,0 l -2.526,0 2.694,-9.116 2.647,0 L 0,0 Z"/></g><g id="g5102" transform="matrix(0.70789451,0,0,-0.70789451,61.303522,1002.8223)"><path id="path5104" fill="#fff" fill-opacity="1" fill-rule="nonzero" stroke="none" d="m 0,0 -2.477,0 -1.469,-6.544 -0.071,0 -1.42,6.544 -2.597,0 2.694,-9.116 2.646,0 L 0,0 Z"/></g><g id="g5106" transform="matrix(0.70789451,0,0,-0.70789451,54.356953,1002.8223)"><path id="path5108" fill="#fff" fill-opacity="1" fill-rule="nonzero" stroke="none" d="m 0,0 -2.117,0 0,-6.277 -2.334,6.277 -2.911,0 0,-9.116 2.166,0 0,6.277 0.047,0 2.285,-6.277 2.864,0 L 0,0 Z"/></g></g></svg>