<svg xmlns="http://www.w3.org/2000/svg" xmlns:svg="http://www.w3.org/2000/svg" id="svg4136" width="96" height="96" version="1.1" viewBox="0 0 96 96"><defs id="defs4138"><clipPath id="clipPath3470" clipPathUnits="userSpaceOnUse"><path id="path3472" d="m 0,0 937.559,0 0,841.89 L 0,841.89 0,0 Z"/></clipPath><clipPath id="clipPath3506" clipPathUnits="userSpaceOnUse"><path id="path3508" d="m 1119.766,4.513 39.711,0 0,26.33 -39.711,0 0,-26.33 z"/></clipPath></defs><metadata id="metadata4141"/><g id="layer1" transform="translate(0,-956.36216)"><rect id="rect4267" width="96" height="96" x="0" y="956.362" fill="#fff" fill-opacity="1" stroke="#01ffff" stroke-dasharray="none" stroke-linecap="butt" stroke-linejoin="miter" stroke-miterlimit="0" stroke-opacity="1" stroke-width="0"/><path id="path2996" fill="#d9001a" fill-opacity="1" stroke="none" d="m 2.0091111,1007.671 15.7903599,32.2192 15.79036,-32.2192 -13.563515,0 -2.226845,4.5316 -2.226846,-4.5316 -13.5635139,0 z"/><path id="path2996-7" fill="#d9001a" fill-opacity="1" stroke="none" d="m 35.333932,1007.671 15.79036,32.2192 15.79036,-32.2192 -13.563514,0 -2.226846,4.5316 -2.226845,-4.5316 -13.563515,0 z"/><path id="path3035" fill="#d9001a" fill-opacity="1" stroke="none" stroke-width="1" d="m 68.658756,1007.671 0,12.4579 6.182223,0 0,19.4032 13.08077,0 0,-19.4032 6.182222,0 0,-12.4579 -25.445215,0 z" baseline-shift="baseline" color="#000" direction="ltr" display="inline" enable-background="accumulate" font-family="Sans" font-size="medium" font-stretch="normal" font-style="normal" font-variant="normal" font-weight="normal" letter-spacing="normal" overflow="visible" text-anchor="start" text-decoration="none" visibility="visible" word-spacing="normal" writing-mode="lr-tb" style="line-height:normal;-inkscape-font-specification:Sans;text-indent:0;text-align:start;text-decoration-line:none;text-transform:none;block-progression:tb;marker:none"/><path id="path3812" fill="#d9dadb" fill-opacity="1" stroke="none" d="m 55.194768,998.11498 -8.12954,0.0161 -4.078747,-7.03232 4.050797,-7.04846 8.12954,-0.0161 4.078747,7.03232 z"/><path id="path3812-3" fill="#d9dadb" fill-opacity="1" stroke="none" d="m 55.194768,983.02138 -8.12954,0.0161 -4.078747,-7.03232 4.050797,-7.04846 8.12954,-0.0161 4.078747,7.03232 z"/><path id="path3812-6" fill="#d9dadb" fill-opacity="1" stroke="none" d="m 68.239314,1005.6617 -8.12954,0.016 -4.078747,-7.03227 4.050797,-7.04846 8.12954,-0.0161 4.078747,7.03232 z"/><path id="path3812-3-5" fill="#d9dadb" fill-opacity="1" stroke="none" d="m 68.239314,990.56819 -8.12954,0.0161 -4.078747,-7.03232 4.050797,-7.04846 8.12954,-0.0161 4.078747,7.03232 z"/><path id="path3812-3-6" fill="#d9dadb" fill-opacity="1" stroke="none" d="m 42.155631,1005.6775 -8.12954,0.016 -4.078747,-7.03233 4.050797,-7.04846 8.12954,-0.0161 4.078747,7.03232 z"/><path id="path3812-3-6-3" fill="#d9dadb" fill-opacity="1" stroke="none" d="m 81.275592,998.11497 -8.12954,0.0161 -4.078747,-7.03232 4.050797,-7.04846 8.12954,-0.0161 4.078747,7.03232 z"/></g></svg>