<svg xmlns="http://www.w3.org/2000/svg" xmlns:svg="http://www.w3.org/2000/svg" id="svg49417" width="64" height="64" version="1.1" xml:space="preserve"><title id="title4745">Logo of Münchner Verkehrs- und Tarifverbund (MVV)</title><metadata id="metadata55"/><g id="g49427" transform="matrix(1.25,0,0,-1.25,0,64)"><g id="g97772" transform="matrix(1.8658537,0,0,1.8658537,-382.08804,-1756.4869)"><rect id="rect4150" width="27.441" height="27.441" x="204.779" y="-968.826" fill="#fff" fill-opacity="1" fill-rule="nonzero" stroke="none" stroke-dasharray="none" stroke-dashoffset="0" stroke-linecap="butt" stroke-linejoin="round" stroke-miterlimit="4" stroke-opacity="1" stroke-width="1" opacity="1" transform="scale(1,-1)"/><g id="g4749" transform="matrix(0.15781672,0,0,0.15781672,172.6552,792.23121)"><path id="path94553" fill="#ec0583" fill-opacity="1" fill-rule="nonzero" stroke="none" d="m 253.42889,992.48681 -30.254,0 27.418,79.11899 30.253,0 -27.417,-79.11899 z"/><path id="path94557" fill="#ec0583" fill-opacity="1" fill-rule="nonzero" stroke="none" d="m 305.30269,992.48681 -30.254,0 27.418,79.11899 30.249,0 -27.413,-79.11899 z"/><path id="path94561" fill="#231f20" fill-opacity="1" fill-rule="nonzero" stroke="none" d="m 335.10589,1048.2925 -18.952,0.696 0,-45.077 20.215,0 0,22.656 7.783,-8.714 7.552,8.597 0,-22.657 20.1,0 0,45.082 -20.1,0 -8.58,-9.528 -8.018,8.945 z"/><path id="path94565" fill="none" stroke="#231f20" stroke-dasharray="none" stroke-linecap="butt" stroke-linejoin="miter" stroke-miterlimit="4" stroke-opacity="1" stroke-width=".382" d="m 335.10589,1048.2925 -18.952,0.696 0,-45.077 20.215,0 0,22.656 7.783,-8.714 7.552,8.597 0,-22.657 20.1,0 0,45.082 -20.1,0 -8.58,-9.528 -8.018,8.945 z"/><path id="path94569" fill="#231f20" fill-opacity="1" fill-rule="nonzero" stroke="none" d="m 235.18509,1048.7361 -20.446,0 16.15,-44.964 19.4,0 15.775,45.065 -20.336,0 -5.194,-15.44 -5.349,15.339 z"/><path id="path94573" fill="none" stroke="#231f20" stroke-dasharray="none" stroke-linecap="butt" stroke-linejoin="miter" stroke-miterlimit="4" stroke-opacity="1" stroke-width=".382" d="m 235.18509,1048.7361 -20.446,0 16.15,-44.964 19.4,0 15.775,45.065 -20.336,0 -5.194,-15.44 -5.349,15.339 z"/><path id="path94577" fill="#231f20" fill-opacity="1" fill-rule="nonzero" stroke="none" d="m 283.76898,1048.6402 -20.453,0 16.149,-44.962 19.404,0 15.775,45.065 -20.331,0 -5.203,-15.438 -5.341,15.335 z"/><path id="path94581" fill="none" stroke="#231f20" stroke-dasharray="none" stroke-linecap="butt" stroke-linejoin="miter" stroke-miterlimit="4" stroke-opacity="1" stroke-width=".382" d="m 283.76898,1048.6402 -20.453,0 16.149,-44.962 19.404,0 15.775,45.065 -20.331,0 -5.203,-15.438 -5.341,15.335 z"/><path id="path94585" fill="#fff" fill-opacity="1" fill-rule="nonzero" stroke="none" d="m 330.55319,1053.9993 -20.1,0 0,-45.078 20.213,0 0,22.655 7.784,-8.713 7.552,8.597 0,-22.657 20.1,0 0,45.169 -20.1,0 -7.435,-8.92 -8.014,8.947 z"/><path id="path94589" fill="none" stroke="#231f20" stroke-dasharray="none" stroke-linecap="butt" stroke-linejoin="miter" stroke-miterlimit="4" stroke-opacity="1" stroke-width=".382" d="m 330.55319,1053.9993 -20.1,0 0,-45.078 20.213,0 0,22.655 7.784,-8.713 7.552,8.597 0,-22.657 20.1,0 0,45.169 -20.1,0 -7.435,-8.92 -8.014,8.947 z"/><path id="path94593" fill="#fff" fill-opacity="1" fill-rule="nonzero" stroke="none" d="m 278.38649,1053.985 -20.449,0 16.152,-44.964 19.401,0 15.77,45.065 -20.33,0 -5.199,-15.435 -5.345,15.334 z"/><path id="path94597" fill="none" stroke="#231f20" stroke-dasharray="none" stroke-linecap="butt" stroke-linejoin="miter" stroke-miterlimit="4" stroke-opacity="1" stroke-width=".382" d="m 278.38649,1053.985 -20.449,0 16.152,-44.964 19.401,0 15.77,45.065 -20.33,0 -5.199,-15.435 -5.345,15.334 z"/><path id="path94601" fill="#fff" fill-opacity="1" fill-rule="nonzero" stroke="none" d="m 229.70579,1053.8839 -20.448,0 16.148,-44.963 19.404,0 15.77,45.064 -20.33,0 -5.199,-15.438 -5.345,15.337 z"/><path id="path94605" fill="none" stroke="#231f20" stroke-dasharray="none" stroke-linecap="butt" stroke-linejoin="miter" stroke-miterlimit="4" stroke-opacity="1" stroke-width=".382" d="m 229.70579,1053.8839 -20.448,0 16.148,-44.963 19.404,0 15.77,45.064 -20.33,0 -5.199,-15.438 -5.345,15.337 z"/></g></g></g></svg>