<svg xmlns="http://www.w3.org/2000/svg" xmlns:svg="http://www.w3.org/2000/svg" id="svg4136" width="96" height="96" version="1.1" viewBox="0 0 96 96"><defs id="defs4138"><clipPath id="clipPath3470" clipPathUnits="userSpaceOnUse"><path id="path3472" d="m 0,0 937.559,0 0,841.89 L 0,841.89 0,0 Z"/></clipPath><clipPath id="clipPath3506" clipPathUnits="userSpaceOnUse"><path id="path3508" d="m 1119.766,4.513 39.711,0 0,26.33 -39.711,0 0,-26.33 z"/></clipPath></defs><metadata id="metadata4141"/><g id="layer1" transform="translate(0,-956.36216)"><rect id="rect4267" width="96" height="96" x="0" y="956.362" fill="#fff" fill-opacity="1" fill-rule="nonzero" stroke="#01ffff" stroke-dasharray="none" stroke-linecap="butt" stroke-linejoin="miter" stroke-miterlimit="0" stroke-opacity="1" stroke-width="0"/><path id="path8069" fill="#221f1f" fill-rule="nonzero" stroke="#221f1f" stroke-dasharray="none" stroke-linecap="butt" stroke-linejoin="miter" stroke-miterlimit="3.864" stroke-width=".339" d="m 25.782474,1011.145 -0.409367,-9.5812 -4.756464,0 1.559496,15.9186 5.068364,0 7.914444,-15.9186 -4.77596,0 -4.600513,9.5812 z" font-family="fnt4" font-size="9.3" letter-spacing="0" word-spacing="0"/><path id="path8071" fill="#221f1f" fill-rule="nonzero" stroke="#221f1f" stroke-dasharray="none" stroke-linecap="butt" stroke-linejoin="miter" stroke-miterlimit="3.864" stroke-width=".339" d="m 42.254654,1011.8175 2.027346,0.068 c -1.637473,2.3178 -3.391905,2.3373 -3.684312,2.3549 -0.682278,0.037 -3.352915,-0.5595 -2.573167,-4.7351 0.565318,-2.9825 2.865574,-4.5615 4.503043,-4.4718 1.384055,0.074 2.553677,1.2359 2.41722,1.8636 l 4.483553,0 c 0.292404,-2.2145 -0.974685,-5.1444 -5.906592,-5.7585 -5.36077,-0.6686 -9.610396,3.7448 -9.94179,8.4993 -0.428861,5.7467 2.007853,8.4096 5.887098,8.4096 2.924057,0 4.132666,-1.156 5.185327,-2.1404 l -0.272913,1.7154 3.177474,0 1.832409,-8.6552 -6.822796,0 -0.3119,2.85 z" font-family="fnt4" font-size="9.3" letter-spacing="0" word-spacing="0"/><path id="path8073" fill="#221f1f" fill-rule="nonzero" stroke="#221f1f" stroke-dasharray="none" stroke-linecap="butt" stroke-linejoin="miter" stroke-miterlimit="3.864" stroke-width=".339" d="m 60.754179,1011.2951 -3.177474,-9.7313 -4.425073,0 -3.411398,16.0589 4.327603,0 2.027346,-9.123 3.372411,9.123 4.249626,0 3.411398,-16.0589 -4.308109,0 -2.06633,9.7313 z" font-family="fnt4" font-size="9.3" letter-spacing="0" word-spacing="0"/><path id="path8137" fill="#00a676" fill-rule="nonzero" stroke="none" stroke-dasharray="none" stroke-linecap="butt" stroke-linejoin="miter" stroke-miterlimit="3.864" stroke-width="1.152" d="m 45.237191,982.87519 c -0.701774,-0.0565 -1.423042,-0.0858 -2.124813,-0.0858 -14.52281,0 -26.277513,11.7625 -26.277513,26.27358 0,0.7447 0.01948,1.4816 0.07797,2.2087 l -0.07797,0 0,29.3205 -6.861783,6.7857 -7.349127,-7.3374 0.077974,-28.7669 c -0.038987,-0.8089 -0.077974,-1.6257 -0.077974,-2.4484 0,-16.49359 9.883307,-30.67916 24.05523,-36.95613 l -0.05848,0.0292 18.616486,10.97496" font-family="fnt4" font-size="9.3" letter-spacing="0" word-spacing="0"/><path id="path8139" fill="#00a676" fill-rule="nonzero" stroke="none" stroke-dasharray="none" stroke-linecap="butt" stroke-linejoin="miter" stroke-miterlimit="3.864" stroke-width="1.152" d="m 19.661452,1021.7495 c 0.292404,0.6375 0.623798,1.2691 0.994178,1.8909 7.251657,12.5676 23.333963,16.209 35.887907,8.9535 0.643294,-0.3723 1.267092,-0.7681 1.871396,-1.1833 l 0.03899,0.078 24.659535,-14.4 10.312171,2.5517 -2.690131,10.0237 -25.205358,14.0588 c -0.682281,0.4484 -1.384055,0.8773 -2.085826,1.2886 -14.288887,8.2478 -31.501824,6.7799 -44.036275,-2.3529 l 0.05848,0.045 0.194937,-20.9538" font-family="fnt4" font-size="9.3" letter-spacing="0" word-spacing="0"/><path id="path8141" fill="#00a676" fill-rule="nonzero" stroke="none" stroke-dasharray="none" stroke-linecap="butt" stroke-linejoin="miter" stroke-miterlimit="3.864" stroke-width="1.152" d="m 65.725073,1024.4085 c 0.389874,-0.5829 0.779748,-1.1852 1.130635,-1.8071 7.27115,-12.5676 2.963041,-28.63624 -9.610397,-35.8918 -0.643291,-0.37233 -1.286585,-0.71347 -1.949369,-1.02536 l 0.03899,-0.0799 -25.107888,-15.05888 -2.456207,-9.33749 10.019761,-2.68623 24.601054,14.84445 c 0.721268,0.36454 1.442536,0.75051 2.163803,1.16183 14.288884,8.24778 21.618517,23.89928 19.981045,39.30711 l 0,-0.072 -18.811423,10.6455" font-family="fnt4" font-size="9.3" letter-spacing="0" word-spacing="0"/></g></svg>