<svg xmlns="http://www.w3.org/2000/svg" xmlns:svg="http://www.w3.org/2000/svg" id="svg4136" width="96" height="96" version="1.1" viewBox="0 0 96 96"><defs id="defs4138"><clipPath id="clipPath3470" clipPathUnits="userSpaceOnUse"><path id="path3472" d="m 0,0 937.559,0 0,841.89 L 0,841.89 0,0 Z"/></clipPath><clipPath id="clipPath3506" clipPathUnits="userSpaceOnUse"><path id="path3508" d="m 1119.766,4.513 39.711,0 0,26.33 -39.711,0 0,-26.33 z"/></clipPath></defs><metadata id="metadata4141"/><g id="layer1" transform="translate(0,-956.36216)"><rect id="rect4267" width="96" height="96" x="0" y="956.362" fill="#fff" fill-opacity="1" stroke="#01ffff" stroke-dasharray="none" stroke-linecap="butt" stroke-linejoin="miter" stroke-miterlimit="0" stroke-opacity="1" stroke-width="0"/><path id="path32480" fill="#000" fill-opacity="1" fill-rule="nonzero" stroke="none" d="m 6.0733905,1009.5107 -4.0326341,17.6308 4.73388,0 1.8724958,-8.3229 4.1999558,8.3229 5.553567,0 -5.136204,-9.073 8.546552,-8.5578 -6.072451,0 -6.6007357,7.161 1.6694537,-7.161 -4.7338795,0 z m 16.2339375,0 1.949576,17.6308 5.813009,0 10.078765,-17.6308 -5.061003,0 -7.093299,13.2672 -1.015209,-13.2672 -4.671839,0 z m 18.739998,0 1.923256,17.6308 5.90325,0 10.037405,-17.6308 -5.059123,0 -7.09706,13.2672 -1.026489,-13.2672 -4.681239,0 z"/><path id="path3592" fill="#cf113f" fill-opacity="1" fill-rule="nonzero" stroke="none" d="m 51.50574,981.9392 c -9.546721,9.19328 -23.576692,16.23934 -43.1608212,16.47623 l -1.5235952,6.68417 85.5005784,0 1.671044,-6.68706 -56.286295,0 C 49.139029,994.5397 55.666482,988.1583 62.838744,981.9392 l -11.333004,0 z m 40.035572,25.7537 c -21.928506,0.047 -32.342124,10.388 -38.679659,19.5436 l 9.54343,0 c 9.956566,-12.628 22.322143,-13.1345 27.569268,-13.189 l 1.566961,-6.3546 z"/></g></svg>