<svg xmlns="http://www.w3.org/2000/svg" xmlns:svg="http://www.w3.org/2000/svg" id="svg2" width="24" height="24" version="1.1" viewBox="0 0 24 24"><metadata id="metadata12"/><path id="path4" fill="none" d="M0 0h24v24h-24z"/><path id="path6" d="m 12,4.0494112 c -4.42,0 -8,0.4460681 -8,3.568545 l 0,8.4752948 c 0,1.721823 1.57,3.122476 3.5,3.122476 L 6,20.553932 6,21 l 12,0 0,-0.446068 -1.5,-1.338205 c 1.93,0 3.5,-1.400653 3.5,-3.122476 L 20,7.6179562 C 20,4.4954793 16.42,4.0494112 12,4.0494112 Z M 7.5,17.431455 c -0.83,0 -1.5,-0.597731 -1.5,-1.338204 0,-0.740473 0.67,-1.338205 1.5,-1.338205 0.83,0 1.5,0.597732 1.5,1.338205 0,0.740473 -0.67,1.338204 -1.5,1.338204 z m 3.5,-5.352818 -5,0 0,-4.4606808 5,0 0,4.4606808 z m 5.5,5.352818 c -0.83,0 -1.5,-0.597731 -1.5,-1.338204 0,-0.740473 0.67,-1.338205 1.5,-1.338205 0.83,0 1.5,0.597732 1.5,1.338205 0,0.740473 -0.67,1.338204 -1.5,1.338204 z m 1.5,-5.352818 -5,0 0,-4.4606808 5,0 0,4.4606808 z"/><rect id="rect4140" width="16" height="1" x="4" y="2" fill="#000" fill-opacity="1" fill-rule="nonzero" stroke="none" stroke-dasharray="none" stroke-dashoffset="0" stroke-linecap="square" stroke-linejoin="round" stroke-miterlimit="10" stroke-opacity="1" stroke-width="1.778" opacity="1"/></svg>