<svg xmlns="http://www.w3.org/2000/svg" xmlns:svg="http://www.w3.org/2000/svg" id="svg2" width="24" height="24" version="1.1" viewBox="0 0 24 24"><metadata id="metadata12"/><path id="path4" fill="none" d="M0 0h24v24h-24z"/><path id="path6" d="M 4,14.5 C 4,16.43 5.57,19 7.5,19 L 5,20.5 5,21 19,21 19,20.5 16.5,19 C 18.43,19 20,16.43 20,14.5 L 20,12 C 20,8.5 16.42,1 12,1 7.58,1 4,8.5 4,12 Z m 8,2.5 c -1.1,0 -2,-0.9 -2,-2 0,-1.1 0.9,-2 2,-2 1.1,0 2,0.9 2,2 0,1.1 -0.9,2 -2,2 z M 18,10 6,10 C 7.3871676,5.5045548 8.4470773,5.2566535 9,5 l 6,0 c 1.416802,0.3943228 2.212659,2.6841626 3,5 z"/></svg>