<svg xmlns="http://www.w3.org/2000/svg" xmlns:svg="http://www.w3.org/2000/svg" id="svg2" width="24" height="24" version="1.1" viewBox="0 0 24 24"><metadata id="metadata12"/><path id="path6" fill="none" d="M0 0h24v24h-24z"/><path id="rect3128" fill="#000" fill-opacity="1" fill-rule="nonzero" stroke="none" stroke-width="1" d="m 22.693918,2.5815841 -9.077859,2.1547934 0,-0.9229343 -2.95339,0.6922011 0,0.8998608 -9.3331574,2.1868378 -0.02542,0.712924 10.0969284,-2.322928 0,3.622517 -5.5376064,0 -1.476695,1.4766961 0,9.598516 0.738347,0.738348 14.0286024,0 0.738347,-0.738348 0,-9.598516 -1.476695,-1.4766961 -5.537606,0 0,-3.9686176 9.818194,-2.3710602 z m -17.5688554,9.2383149 3.691738,0 0,4.614671 -3.691738,0 z m 4.430085,0 5.1684314,0 0,4.614671 -5.1684314,0 z m 5.9067794,0 3.691738,0 0,4.614671 -3.691738,0 z" color="#000" display="inline" enable-background="accumulate" overflow="visible" visibility="visible" style="marker:none"/></svg>