<svg xmlns="http://www.w3.org/2000/svg" xmlns:svg="http://www.w3.org/2000/svg" id="svg5787" width="24" height="24" version="1.1" viewBox="0 0 24 24"><metadata id="metadata5793"/><g id="g823"><circle id="path814" cx="12" cy="12" r="12" fill="#f24236" fill-opacity="1" fill-rule="nonzero" stroke="none" stroke-linecap="butt" stroke-linejoin="miter" stroke-opacity="1" stroke-width="1.082"/><path id="path814-3" fill="#fff" fill-opacity="1" fill-rule="nonzero" stroke="none" stroke-linecap="butt" stroke-linejoin="miter" stroke-opacity="1" stroke-width=".992" d="m 12,1.3554688 c -2.7867178,0 -5.5568367,1.1466804 -7.5273438,3.1171874 C 2.5021492,6.4431633 1.3554687,9.2132822 1.3554688,12 c 0,2.786718 1.1466804,5.556837 3.1171874,7.527344 1.9705071,1.970507 4.740626,3.117187 7.5273438,3.117187 2.786718,0 5.556837,-1.14668 7.527344,-3.117187 1.970507,-1.970507 3.117187,-4.740626 3.117187,-7.527344 0,-2.7867178 -1.14668,-5.5568367 -3.117187,-7.5273438 C 17.556837,2.5021492 14.786718,1.3554687 12,1.3554688 Z m 0.511719,1.1347656 c 2.683201,0.1470424 5.271605,1.4553941 6.939453,3.5859375 0.0011,0.00146 0.0028,0.00244 0.0039,0.00391 3.15977,3.5535294 2.494237,8.2967469 -0.01172,11.5800779 -2.506162,3.283603 -6.90817,5.182077 -11.1582028,3.101563 C 3.7168732,19.123331 2.0537187,14.56044 2.7558594,10.443359 3.4589663,6.3206132 6.5459336,2.5497274 11.378906,2.5 c 0.377496,-0.026295 0.755962,-0.030409 1.132813,-0.00977 z" transform="matrix(1.0333945,0,0,1.0333945,-0.4007339,-0.4007339)"/></g><path id="path5785" fill="#fff" fill-opacity="1" stroke-width=".667" d="M 16.502914,7.722644 C 16.369581,7.32931 15.996248,7.04931 15.556248,7.04931 H 13.889581 V 5.715977 h -4 V 7.04931 H 8.2229143 c -0.44,0 -0.8066666,0.28 -0.9466666,0.673334 L 5.889581,11.715977 v 5.333333 c 0,0.366667 0.3,0.666667 0.6666667,0.666667 h 0.6666666 c 0.3666667,0 0.6666667,-0.3 0.6666667,-0.666667 v -0.666666 h 8 v 0.666666 c 0,0.366667 0.3,0.666667 0.666667,0.666667 h 0.666666 c 0.366667,0 0.666667,-0.3 0.666667,-0.666667 v -5.333333 z m -8.2799997,6.66 c -0.5533333,0 -1,-0.446667 -1,-1 0,-0.553334 0.4466667,-1 1,-1 0.5533334,0 1,0.446666 1,1 0,0.553333 -0.4466666,1 -1,1 z m 7.3333337,0 c -0.553334,0 -1,-0.446667 -1,-1 0,-0.553334 0.446666,-1 1,-1 0.553333,0 1,0.446666 1,1 0,0.553333 -0.446667,1 -1,1 z m -8.3333337,-3.333334 1,-3 h 7.3333337 l 1,3 z"/></svg>