<svg xmlns="http://www.w3.org/2000/svg" xmlns:svg="http://www.w3.org/2000/svg" id="svg8" width="24" height="24" version="1.1" viewBox="0 0 24 24"><metadata id="metadata14"/><g id="g823"><circle id="path814" cx="12" cy="12" r="12" fill="#f24236" fill-opacity="1" fill-rule="nonzero" stroke="none" stroke-linecap="butt" stroke-linejoin="miter" stroke-opacity="1" stroke-width="1.082"/><path id="path814-3" fill="#fff" fill-opacity="1" fill-rule="nonzero" stroke="none" stroke-linecap="butt" stroke-linejoin="miter" stroke-opacity="1" stroke-width=".992" d="m 12,1.3554688 c -2.7867178,0 -5.5568367,1.1466804 -7.5273438,3.1171874 C 2.5021492,6.4431633 1.3554687,9.2132822 1.3554688,12 c 0,2.786718 1.1466804,5.556837 3.1171874,7.527344 1.9705071,1.970507 4.740626,3.117187 7.5273438,3.117187 2.786718,0 5.556837,-1.14668 7.527344,-3.117187 1.970507,-1.970507 3.117187,-4.740626 3.117187,-7.527344 0,-2.7867178 -1.14668,-5.5568367 -3.117187,-7.5273438 C 17.556837,2.5021492 14.786718,1.3554687 12,1.3554688 Z m 0.511719,1.1347656 c 2.683201,0.1470424 5.271605,1.4553941 6.939453,3.5859375 0.0011,0.00146 0.0028,0.00244 0.0039,0.00391 3.15977,3.5535294 2.494237,8.2967469 -0.01172,11.5800779 -2.506162,3.283603 -6.90817,5.182077 -11.1582028,3.101563 C 3.7168732,19.123331 2.0537187,14.56044 2.7558594,10.443359 3.4589663,6.3206132 6.5459336,2.5497274 11.378906,2.5 c 0.377496,-0.026295 0.755962,-0.030409 1.132813,-0.00977 z" transform="matrix(1.0333945,0,0,1.0333945,-0.4007339,-0.4007339)"/></g><path id="path2" fill="#fff" fill-opacity="1" stroke-width=".786" d="M 17.336488,15.841587 V 9.2101587 c 0,-2.1921429 -2.050715,-2.6714289 -4.722142,-2.7421432 L 13.211488,5.281587 H 15.76506 V 4.1030155 H 7.9079172 V 5.281587 H 11.64006 L 11.042917,6.4758727 C 8.5836314,6.546587 6.3364886,7.0337293 6.3364886,9.2101587 v 6.6314283 c 0,1.139287 0.935,2.09 2.035,2.333572 l -1.2492857,1.249286 v 0.392857 h 1.7521429 l 1.5714282,-1.571428 h 2.962142 l 1.571429,1.571428 h 1.571428 v -0.392857 l -1.17857,-1.178571 h -0.06285 c 1.327854,0 2.027139,-1.076429 2.027139,-2.404287 z m -5.499999,1.225715 c -0.652143,0 -1.178572,-0.526428 -1.178572,-1.178572 0,-0.652143 0.526429,-1.178571 1.178572,-1.178571 0.652142,0 1.178571,0.526428 1.178571,1.178571 0,0.652144 -0.526429,1.178572 -1.178571,1.178572 z M 15.76506,13.531587 H 7.9079172 V 9.6030157 H 15.76506 Z"/></svg>