<svg xmlns="http://www.w3.org/2000/svg" xmlns:svg="http://www.w3.org/2000/svg" id="svg4594" width="24" height="24" version="1.1" viewBox="0 0 24 24"><metadata id="metadata4600"/><g id="g823"><circle id="path814" cx="12" cy="12" r="12" fill="#f24236" fill-opacity="1" fill-rule="nonzero" stroke="none" stroke-linecap="butt" stroke-linejoin="miter" stroke-opacity="1" stroke-width="1.082"/><path id="path814-3" fill="#fff" fill-opacity="1" fill-rule="nonzero" stroke="none" stroke-linecap="butt" stroke-linejoin="miter" stroke-opacity="1" stroke-width=".992" d="m 12,1.3554688 c -2.7867178,0 -5.5568367,1.1466804 -7.5273438,3.1171874 C 2.5021492,6.4431633 1.3554687,9.2132822 1.3554688,12 c 0,2.786718 1.1466804,5.556837 3.1171874,7.527344 1.9705071,1.970507 4.740626,3.117187 7.5273438,3.117187 2.786718,0 5.556837,-1.14668 7.527344,-3.117187 1.970507,-1.970507 3.117187,-4.740626 3.117187,-7.527344 0,-2.7867178 -1.14668,-5.5568367 -3.117187,-7.5273438 C 17.556837,2.5021492 14.786718,1.3554687 12,1.3554688 Z m 0.511719,1.1347656 c 2.683201,0.1470424 5.271605,1.4553941 6.939453,3.5859375 0.0011,0.00146 0.0028,0.00244 0.0039,0.00391 3.15977,3.5535294 2.494237,8.2967469 -0.01172,11.5800779 -2.506162,3.283603 -6.90817,5.182077 -11.1582028,3.101563 C 3.7168732,19.123331 2.0537187,14.56044 2.7558594,10.443359 3.4589663,6.3206132 6.5459336,2.5497274 11.378906,2.5 c 0.377496,-0.026295 0.755962,-0.030409 1.132813,-0.00977 z" transform="matrix(1.0333945,0,0,1.0333945,-0.4007339,-0.4007339)"/></g><path id="path4592" fill="#fff" fill-opacity="1" stroke-width=".7" d="m 17.481245,17.693633 c -0.972886,0 -1.945773,-0.328962 -2.799673,-0.923893 -1.707801,1.196861 -3.891547,1.196861 -5.5993483,0 -0.8539006,0.594931 -1.8267871,0.923893 -2.7996738,0.923893 H 4.882713 v 1.399837 h 1.3998369 c 0.9658874,0 1.9177766,-0.244971 2.7996738,-0.692919 1.7637943,0.902894 3.8355543,0.902894 5.5993483,0 0.881897,0.454947 1.833786,0.692919 2.799673,0.692919 h 1.399838 V 17.693633 Z M 6.247554,16.293796 H 6.28255 c 1.1198695,0 2.1137538,-0.615928 2.7996739,-1.399837 0.68592,0.783909 1.6798041,1.399837 2.7996731,1.399837 1.119871,0 2.113754,-0.615928 2.799675,-1.399837 0.68592,0.783909 1.679804,1.399837 2.799673,1.399837 h 0.035 l 1.322846,-4.675455 c 0.05599,-0.181979 0.04199,-0.377956 -0.042,-0.545936 -0.08399,-0.167981 -0.237972,-0.293966 -0.419951,-0.349959 L 17.481245,10.42848 V 7.1948564 c 0,-0.7699103 -0.629926,-1.3998369 -1.399836,-1.3998369 H 13.981653 V 3.6952642 H 9.7821421 V 5.7950195 H 7.6823868 c -0.7699103,0 -1.3998369,0.6299266 -1.3998369,1.3998369 V 10.42848 l -0.9028948,0.293966 c -0.1819788,0.05599 -0.3359608,0.181978 -0.4199511,0.349959 -0.08399,0.16798 -0.1049877,0.363957 -0.041995,0.545936 z M 7.6823868,7.1948564 H 16.081409 V 9.9735317 L 11.881898,8.594693 7.6823868,9.9735317 Z"/></svg>