<svg xmlns="http://www.w3.org/2000/svg" xmlns:svg="http://www.w3.org/2000/svg" id="svg2" width="24" height="24" version="1.1" viewBox="0 0 24 24"><metadata id="metadata12"/><g id="g823"><circle id="path814" cx="12" cy="12" r="12" fill="#f24236" fill-opacity="1" fill-rule="nonzero" stroke="none" stroke-linecap="butt" stroke-linejoin="miter" stroke-opacity="1" stroke-width="1.082"/><path id="path814-3" fill="#fff" fill-opacity="1" fill-rule="nonzero" stroke="none" stroke-linecap="butt" stroke-linejoin="miter" stroke-opacity="1" stroke-width=".992" d="m 12,1.3554688 c -2.7867178,0 -5.5568367,1.1466804 -7.5273438,3.1171874 C 2.5021492,6.4431633 1.3554687,9.2132822 1.3554688,12 c 0,2.786718 1.1466804,5.556837 3.1171874,7.527344 1.9705071,1.970507 4.740626,3.117187 7.5273438,3.117187 2.786718,0 5.556837,-1.14668 7.527344,-3.117187 1.970507,-1.970507 3.117187,-4.740626 3.117187,-7.527344 0,-2.7867178 -1.14668,-5.5568367 -3.117187,-7.5273438 C 17.556837,2.5021492 14.786718,1.3554687 12,1.3554688 Z m 0.511719,1.1347656 c 2.683201,0.1470424 5.271605,1.4553941 6.939453,3.5859375 0.0011,0.00146 0.0028,0.00244 0.0039,0.00391 3.15977,3.5535294 2.494237,8.2967469 -0.01172,11.5800779 -2.506162,3.283603 -6.90817,5.182077 -11.1582028,3.101563 C 3.7168732,19.123331 2.0537187,14.56044 2.7558594,10.443359 3.4589663,6.3206132 6.5459336,2.5497274 11.378906,2.5 c 0.377496,-0.026295 0.755962,-0.030409 1.132813,-0.00977 z" transform="matrix(1.0333945,0,0,1.0333945,-0.4007339,-0.4007339)"/></g><path id="path4" fill="none" d="M0 0h24v24h-24z"/><g id="g5078" transform="matrix(0.75,0,0,0.75,2.8529386,3.3251522)"><path id="path6" fill="#fff" fill-opacity="1" d="m 12,4.0494112 c -4.42,0 -8,0.4460681 -8,3.568545 v 8.4752948 c 0,1.721823 1.57,3.122476 3.5,3.122476 L 6,20.553932 V 21 h 12 v -0.446068 l -1.5,-1.338205 c 1.93,0 3.5,-1.400653 3.5,-3.122476 V 7.6179562 C 20,4.4954793 16.42,4.0494112 12,4.0494112 Z M 7.5,17.431455 c -0.83,0 -1.5,-0.597731 -1.5,-1.338204 0,-0.740473 0.67,-1.338205 1.5,-1.338205 0.83,0 1.5,0.597732 1.5,1.338205 0,0.740473 -0.67,1.338204 -1.5,1.338204 z M 11,12.078637 H 6 V 7.6179562 h 5 z m 5.5,5.352818 c -0.83,0 -1.5,-0.597731 -1.5,-1.338204 0,-0.740473 0.67,-1.338205 1.5,-1.338205 0.83,0 1.5,0.597732 1.5,1.338205 0,0.740473 -0.67,1.338204 -1.5,1.338204 z M 18,12.078637 H 13 V 7.6179562 h 5 z"/><rect id="rect4140" width="16" height="1" x="4" y="2" fill="#fff" fill-opacity="1" fill-rule="nonzero" stroke="none" stroke-dasharray="none" stroke-dashoffset="0" stroke-linecap="square" stroke-linejoin="round" stroke-miterlimit="10" stroke-opacity="1" stroke-width="1.778" opacity="1"/></g></svg>