<svg xmlns="http://www.w3.org/2000/svg" xmlns:svg="http://www.w3.org/2000/svg" id="svg2" width="24" height="24" version="1.1" viewBox="0 0 24 24"><metadata id="metadata12"/><g id="g823"><circle id="path814" cx="12" cy="12" r="12" fill="#f24236" fill-opacity="1" fill-rule="nonzero" stroke="none" stroke-linecap="butt" stroke-linejoin="miter" stroke-opacity="1" stroke-width="1.082"/><path id="path814-3" fill="#fff" fill-opacity="1" fill-rule="nonzero" stroke="none" stroke-linecap="butt" stroke-linejoin="miter" stroke-opacity="1" stroke-width=".992" d="m 12,1.3554688 c -2.7867178,0 -5.5568367,1.1466804 -7.5273438,3.1171874 C 2.5021492,6.4431633 1.3554687,9.2132822 1.3554688,12 c 0,2.786718 1.1466804,5.556837 3.1171874,7.527344 1.9705071,1.970507 4.740626,3.117187 7.5273438,3.117187 2.786718,0 5.556837,-1.14668 7.527344,-3.117187 1.970507,-1.970507 3.117187,-4.740626 3.117187,-7.527344 0,-2.7867178 -1.14668,-5.5568367 -3.117187,-7.5273438 C 17.556837,2.5021492 14.786718,1.3554687 12,1.3554688 Z m 0.511719,1.1347656 c 2.683201,0.1470424 5.271605,1.4553941 6.939453,3.5859375 0.0011,0.00146 0.0028,0.00244 0.0039,0.00391 3.15977,3.5535294 2.494237,8.2967469 -0.01172,11.5800779 -2.506162,3.283603 -6.90817,5.182077 -11.1582028,3.101563 C 3.7168732,19.123331 2.0537187,14.56044 2.7558594,10.443359 3.4589663,6.3206132 6.5459336,2.5497274 11.378906,2.5 c 0.377496,-0.026295 0.755962,-0.030409 1.132813,-0.00977 z" transform="matrix(1.0333945,0,0,1.0333945,-0.4007339,-0.4007339)"/></g><path id="path6" fill="none" d="M0 0h24v24h-24z"/><path id="rect3128" fill="#fff" fill-opacity="1" fill-rule="nonzero" stroke="none" stroke-width=".748" d="M 19.615103,4.5169156 12.825322,6.1285924 V 5.4382841 L 10.616336,5.9560156 V 6.6290661 L 3.6356045,8.26471 3.6165916,8.797942 11.168585,7.0605087 V 9.769969 H 7.0267346 l -1.1044934,1.104494 v 7.179206 l 0.5522463,0.552247 H 16.967175 l 0.552246,-0.552247 V 10.874463 L 16.414928,9.769969 h -4.14185 V 6.8016429 L 19.616592,5.0282094 Z M 6.4744852,11.426709 H 9.2357191 V 14.87825 H 6.4744852 Z m 3.3134802,0 H 13.653692 V 14.87825 H 9.7879654 Z m 4.4179736,0 h 2.761233 v 3.451541 h -2.761233 z" color="#000" display="inline" enable-background="accumulate" overflow="visible" visibility="visible" style="marker:none"/></svg>