<svg xmlns="http://www.w3.org/2000/svg" xmlns:svg="http://www.w3.org/2000/svg" id="svg2" width="24" height="24" version="1.1" viewBox="0 0 24 24"><metadata id="metadata12"/><g id="g823"><circle id="path814" cx="12" cy="12" r="12" fill="#f24236" fill-opacity="1" fill-rule="nonzero" stroke="none" stroke-linecap="butt" stroke-linejoin="miter" stroke-opacity="1" stroke-width="1.082"/><path id="path814-3" fill="#fff" fill-opacity="1" fill-rule="nonzero" stroke="none" stroke-linecap="butt" stroke-linejoin="miter" stroke-opacity="1" stroke-width=".992" d="m 12,1.3554688 c -2.7867178,0 -5.5568367,1.1466804 -7.5273438,3.1171874 C 2.5021492,6.4431633 1.3554687,9.2132822 1.3554688,12 c 0,2.786718 1.1466804,5.556837 3.1171874,7.527344 1.9705071,1.970507 4.740626,3.117187 7.5273438,3.117187 2.786718,0 5.556837,-1.14668 7.527344,-3.117187 1.970507,-1.970507 3.117187,-4.740626 3.117187,-7.527344 0,-2.7867178 -1.14668,-5.5568367 -3.117187,-7.5273438 C 17.556837,2.5021492 14.786718,1.3554687 12,1.3554688 Z m 0.511719,1.1347656 c 2.683201,0.1470424 5.271605,1.4553941 6.939453,3.5859375 0.0011,0.00146 0.0028,0.00244 0.0039,0.00391 3.15977,3.5535294 2.494237,8.2967469 -0.01172,11.5800779 -2.506162,3.283603 -6.90817,5.182077 -11.1582028,3.101563 C 3.7168732,19.123331 2.0537187,14.56044 2.7558594,10.443359 3.4589663,6.3206132 6.5459336,2.5497274 11.378906,2.5 c 0.377496,-0.026295 0.755962,-0.030409 1.132813,-0.00977 z" transform="matrix(1.0333945,0,0,1.0333945,-0.4007339,-0.4007339)"/></g><path id="path4" fill="none" d="M0 0h24v24h-24z"/><path id="path6" fill="#fffbfb" fill-opacity="1" stroke-width=".75" d="m 5.7796611,14.091102 c 0,1.4475 1.1775,3.375 2.625,3.375 l -1.875,1.125 v 0.375 H 17.029661 v -0.375 l -1.875,-1.125 c 1.4475,0 2.625,-1.9275 2.625,-3.375 v -1.875 c 0,-2.6250004 -2.685,-8.2500004 -6,-8.2500004 -3.3149999,0 -5.9999999,5.625 -5.9999999,8.2500004 z m 5.9999999,1.875 c -0.825,0 -1.5,-0.675 -1.5,-1.5 0,-0.825 0.675,-1.5 1.5,-1.5 0.825,0 1.5,0.675 1.5,1.5 0,0.825 -0.675,1.5 -1.5,1.5 z m 4.5,-5.25 H 7.2796611 c 1.0403757,-3.3715843 1.8353079,-3.5575103 2.25,-3.7500004 h 4.4999999 c 1.062602,0.2957421 1.659495,2.013122 2.25,3.7500004 z"/></svg>