<svg xmlns="http://www.w3.org/2000/svg" xmlns:svg="http://www.w3.org/2000/svg" id="svg2" width="24" height="24" version="1.1" viewBox="0 0 24 24"><metadata id="metadata12"/><path id="path6" fill="none" d="M 0,0 H 24 V 24 H 0 Z"/><path id="path4271" fill="#000" fill-opacity="1" fill-rule="nonzero" stroke="none" stroke-linecap="butt" stroke-linejoin="miter" stroke-opacity="1" stroke-width="1.682" d="M 12,0 A 12,12 0 0 0 0,12 12,12 0 0 0 12,24 12,12 0 0 0 24,12 12,12 0 0 0 12,0 Z m 0,4.3636364 A 7.6363636,7.6363636 0 0 1 19.636364,12 7.6363636,7.6363636 0 0 1 12,19.636364 7.6363636,7.6363636 0 0 1 4.3636364,12 7.6363636,7.6363636 0 0 1 12,4.3636364 Z"/></svg>