<svg xmlns="http://www.w3.org/2000/svg" xmlns:svg="http://www.w3.org/2000/svg" id="svg2" width="340" height="64" x="0" y="0" enable-background="new 0 0 512 512" version="1.1" viewBox="0 0 340 64" xml:space="preserve"><metadata id="metadata4352"/><line id="line4336" x1="185.248" x2="343.714" y1="-359.807" y2="28.569" fill="none" stroke="#2a7b26" stroke-miterlimit="10" display="none"/><line id="line4338" x1="217.12" x2="375.586" y1="-364.402" y2="23.975" fill="none" stroke="#2a7b26" stroke-miterlimit="10" display="none"/><line id="line4340" x1="327.626" x2="536.309" y1="-380.857" y2="-16.99" fill="none" stroke="#2a7b26" stroke-miterlimit="10" display="none"/><line id="line4342" x1="353.525" x2="562.208" y1="-388.842" y2="-24.975" fill="none" stroke="#2a7b26" stroke-miterlimit="10" display="none"/><g id="layer1" display="inline" transform="matrix(0.84567955,0,0,1.0010272,-1.04799,-521.87833)"><rect id="rect4419" width="401.188" height="63.188" x=".406" y="448.406" fill="#f24236" fill-opacity="1" fill-rule="nonzero" stroke="#f24236" stroke-dasharray="none" stroke-linecap="round" stroke-linejoin="round" stroke-miterlimit="4" stroke-opacity="1" stroke-width=".812" opacity="1" ry="0"/></g><g id="g4244" transform="matrix(0.89252472,0,0,0.89252472,2.3026209,-396.50025)"><text id="text4208" x="127.707" y="492.612" fill="#fff" fill-opacity="1" stroke="none" stroke-linecap="butt" stroke-linejoin="miter" stroke-opacity="1" stroke-width="1" font-family="FreeSans" font-size="41.524" font-stretch="normal" font-style="normal" font-variant="normal" font-weight="normal" letter-spacing="0" word-spacing="0" xml:space="preserve" style="line-height:128.99999619%;-inkscape-font-specification:FreeSans"><tspan id="tspan4210" x="127.707" y="492.612" fill="#fff" font-family="Roboto" font-stretch="normal" font-style="normal" font-variant="normal" font-weight="500" letter-spacing="0" style="line-height:0%;-inkscape-font-specification:'Roboto Medium'">Transportr</tspan></text></g><g id="g4252"><path id="path4560" fill="#de3d32" fill-opacity="1" fill-rule="evenodd" stroke="none" stroke-linecap="butt" stroke-linejoin="miter" stroke-opacity="1" stroke-width="1" d="M 64.815853,15.826152 42.485148,16.737393 21.47264,17.597912 50.473585,46.834184 23.291579,43.811836 46.186941,66.660799 c 10.020201,-0.0062 20.274774,-0.0581 30.294836,-0.0089 4.73912,-0.297764 12.8711,1.921427 13.070577,-1.895151 l 23.218796,-0.01009 C 105.59739,57.962209 72.087493,22.505834 64.816116,15.826563 Z" display="inline"/><g id="layer1_1_" display="inline" transform="matrix(0.89252472,0,0,0.89252472,2.3026208,-878.78682)"><path id="path4348" fill="#fff" d="m 86.546357,1029.9478 c -1.418483,-4.1472 -9.521389,-18.3143 -12.677171,-23.1694 -3.182645,-5.2326 -6.877984,-7.41734 -12.380367,-7.30957 -4.49431,-0.13818 -30.069562,1.01147 -38.759285,2.48137 -1.901722,0.3218 -1.503445,2.8742 -0.215726,2.9535 2.299349,0.1416 10.811216,0.4654 14.619025,0.8227 2.364247,0.2216 4.585275,1.3485 6.203618,4.5312 1.618354,3.1829 5.505456,12.8658 6.932036,16.5747 0.809171,2.1039 0.980719,4.3649 0.141602,5.8261 -0.627271,1.0925 -2.558927,2.1731 -5.482321,1.6589 -2.454551,-0.4316 -18.611003,-3.9513 -20.202325,-4.3155 -2.031836,-0.4649 -2.700053,3.2992 -0.539395,4.0459 2.966918,1.0254 16.614938,5.7716 27.676022,8.8134 5.641406,1.5514 8.807378,0.7721 13.011847,-0.047 5.281807,-1.0296 12.663582,-2.5353 17.141067,-3.7761 4.396396,-1.2137 5.960862,-5.3675 4.531373,-9.0898 z m -24.207904,8.6598 c -1.900109,0 -3.440611,-1.5405 -3.440611,-3.4406 0,-1.9002 1.540502,-3.4406 3.440611,-3.4406 1.900261,0 3.44061,1.5404 3.44061,3.4406 0,1.9001 -1.540349,3.4406 -3.44061,3.4406 z m 12.650145,-14.9309 c -2.37185,0.5999 -10.659097,1.818 -13.99871,2.1847 -3.641287,0.5261 -5.704687,-0.1618 -6.877987,-2.832 -0.97344,-1.7741 -5.002155,-12.1171 -5.664222,-13.6346 -1.213762,-3.1963 0.283215,-4.1268 2.306149,-4.3292 1.60847,-0.1891 9.160347,-0.8284 11.894865,-1.0653 4.126782,-0.3236 6.230641,1.2677 8.2806,4.828 2.304526,3.8999 4.420197,7.5195 6.203615,10.7216 1.006285,1.8061 0.148402,3.547 -2.14431,4.1268 z m 5.542845,11.067 c -1.710274,0 -3.096555,-1.3862 -3.096555,-3.0967 0,-1.7103 1.385954,-3.0965 3.096555,-3.0965 1.71059,0 3.096544,1.3862 3.096544,3.0965 0,1.7105 -1.386281,3.0967 -3.096544,3.0967 z"/></g></g></svg>