<svg xmlns="http://www.w3.org/2000/svg" xmlns:svg="http://www.w3.org/2000/svg" id="svg2" width="20" height="40" version="1.1" viewBox="0 0 20 40"><metadata id="metadata12"/><path id="path4" d="M 9.25,0 V 15.0625 C 6.846072,15.425312 5,17.495382 5,20 c 1e-7,2.504619 1.8460721,4.574688 4.25,4.9375 V 40 h 1.5 V 24.9375 C 13.153929,24.574688 15,22.504619 15,20 15,17.495382 13.153928,15.425312 10.75,15.0625 V 0 Z M 10,16 c 2.209999,0 4,1.790001 4,4 0,2.210001 -1.790001,4 -4,4 -2.2099995,0 -4,-1.789999 -4,-4 0,-2.209999 1.7900004,-4 4,-4 z"/><path id="path6" fill="none" d="M 0,16 H 24 V 40 H 0 Z"/></svg>